<svg xmlns="http://www.w3.org/2000/svg" width="14" height="14" fill="none"><g fill="#B7C1C5" clip-path="url(#a)"><path d="m6.894 4.783 2.004 2.004.01-.105a1.91 1.91 0 0 0-1.91-1.909l-.104.01Z"/><path d="M7 3.501a3.182 3.182 0 0 1 3.18 3.181c0 .41-.082.802-.226 1.161l1.861 1.861a7.557 7.557 0 0 0 2.186-3.022c-1.104-2.793-3.817-4.771-7.002-4.771-.89 0-1.743.159-2.535.445l1.374 1.371c.36-.14.75-.226 1.161-.226ZM.636 1.767l1.45 1.45.29.29A7.536 7.536 0 0 0 0 6.682a7.525 7.525 0 0 0 6.998 4.772 7.46 7.46 0 0 0 2.79-.538l.27.27 1.855 1.858.811-.808L1.447.956l-.81.811Zm3.519 3.515.982.983a1.91 1.91 0 0 0 1.86 2.325c.145 0 .281-.018.415-.047l.983.983a3.13 3.13 0 0 1-1.397.337 3.182 3.182 0 0 1-3.18-3.181c0-.503.127-.973.337-1.4Z"/></g><defs><clipPath id="a"><path fill="#fff" d="M0 0h14v14H0z"/></clipPath></defs></svg>
